# xmcd
#
# Track frame offsets:
#	150
#	21879
#	41363
#	64229
#	86754
#	100939
#	120252
#	147762
#	175774
#	204565
#
# Disc length: 2930 seconds
#
# Revision: 1
# Processed by: cddbd v1.5.1PL0 Copyright (c) Steve Scherf et al.
# Submitted via: EasyCDDAExtractor 6.5.0.1
#
DISCID=7f0b700a
DTITLE=EL PRODIGIO - CABECITA LOCA
DYEAR=2005
DGENRE=Acapella
TTITLE0=CABECITA LOCA
TTITLE1=BAILA MUJER
TTITLE2=ME LA VOY A ROBA
TTITLE3=LA VIDA ES UN CARNAVAL
TTITLE4=QUE BONITA LUNA
TTITLE5=EL JEFE NUEVO
TTITLE6=EL ESTRUJAO
TTITLE7=CUALQUIERA LLORA
TTITLE8=QUE MUJER QUE TA´ APRETA
TTITLE9=EL SENTENCIADO
EXTD=
EXTT0=
EXTT1=
EXTT2=
EXTT3=
EXTT4=
EXTT5=
EXTT6=
EXTT7=
EXTT8=
EXTT9=
PLAYORDER=
